<?xml version="1.0" encoding="utf-8"?>
<!-- Generator: Adobe Illustrator 16.0.5, SVG Export Plug-In . SVG Version: 6.00 Build 0)  -->
<!DOCTYPE svg PUBLIC "-//W3C//DTD SVG 1.1//EN" "http://www.w3.org/Graphics/SVG/1.1/DTD/svg11.dtd">
<svg version="1.1" id="Layer_1" xmlns="http://www.w3.org/2000/svg" xmlns:xlink="http://www.w3.org/1999/xlink" x="0px" y="0px"
	 width="324px" height="58px" viewBox="0 0 324 58" enable-background="new 0 0 324 58" xml:space="preserve">
<g>
	<path id="XMLID_1_" d="M138.283,30.971V19.493c0-4.323-2.754-7.23-7.192-7.269c-2.333-0.038-4.744,0.689-6.427,3.252
		c-1.262-2.027-3.252-3.252-6.044-3.252c-1.951,0-3.863,0.574-5.356,2.716v-2.256h-3.978v18.287h4.017V20.832
		c0-3.175,1.76-4.858,4.476-4.858c2.64,0,3.979,1.722,3.979,4.82v10.177h4.017V20.832c0-3.175,1.836-4.858,4.476-4.858
		c2.715,0,4.017,1.722,4.017,4.82v10.177H138.283z M197.731,12.684h-6.503V7.136h-4.016v5.548h-3.712v3.634h3.712v8.339
		c0,4.247,1.644,6.771,6.35,6.771c1.721,0,3.711-0.535,4.973-1.416l-1.148-3.404c-1.185,0.688-2.486,1.033-3.518,1.033
		c-1.99,0-2.641-1.225-2.641-3.06v-8.264h6.503V12.684z M231.665,12.224c-2.295,0-3.787,1.072-4.82,2.679v-2.219h-3.94v18.287h3.979
		V20.717c0-3.021,1.301-4.705,3.902-4.705c0.804,0,1.645,0.114,2.487,0.459l1.225-3.75
		C233.616,12.377,232.468,12.224,231.665,12.224L231.665,12.224z M180.363,14.137c-1.912-1.262-4.552-1.913-7.459-1.913
		c-4.629,0-7.612,2.22-7.612,5.854c0,2.984,2.219,4.821,6.312,5.394l1.875,0.269c2.18,0.305,3.213,0.879,3.213,1.912
		c0,1.415-1.453,2.219-4.171,2.219c-2.753,0-4.742-0.88-6.081-1.913l-1.874,3.099c2.18,1.606,4.935,2.372,7.917,2.372
		c5.281,0,8.341-2.486,8.341-5.968c0-3.214-2.409-4.897-6.389-5.471l-1.874-0.268c-1.723-0.229-3.101-0.574-3.101-1.798
		c0-1.339,1.302-2.142,3.482-2.142c2.333,0,4.59,0.879,5.699,1.569L180.363,14.137z M210.127,12.224
		c-5.354,0-9.105,3.902-9.105,9.603c0,5.815,3.902,9.602,9.373,9.602c2.756,0,5.279-0.688,7.499-2.563l-1.951-2.945
		c-1.53,1.225-3.481,1.912-5.317,1.912c-2.563,0-4.897-1.185-5.471-4.475h13.58c0.038-0.498,0.078-0.995,0.078-1.53
		C218.772,16.126,215.254,12.224,210.127,12.224L210.127,12.224z M210.05,15.782c2.564,0,4.209,1.606,4.63,4.438h-9.487
		C205.613,17.581,207.219,15.782,210.05,15.782L210.05,15.782z M160.7,21.827v-9.143h-3.978v2.219
		c-1.263-1.645-3.176-2.679-5.777-2.679c-5.126,0-9.143,4.017-9.143,9.603s4.017,9.602,9.143,9.602c2.602,0,4.515-1.032,5.777-2.678
		v2.22h3.978V21.827z M145.896,21.827c0-3.214,2.104-5.853,5.547-5.853c3.29,0,5.51,2.525,5.51,5.853c0,3.329-2.22,5.853-5.51,5.853
		C148,27.68,145.896,25.04,145.896,21.827L145.896,21.827z M278.528,21.827v-9.143h-3.978v2.219
		c-1.265-1.645-3.176-2.679-5.778-2.679c-5.125,0-9.142,4.017-9.142,9.603s4.017,9.602,9.142,9.602c2.603,0,4.514-1.032,5.778-2.678
		v2.22h3.978V21.827z M263.723,21.827c0-3.214,2.104-5.853,5.548-5.853c3.29,0,5.51,2.525,5.51,5.853c0,3.329-2.22,5.853-5.51,5.853
		C265.827,27.68,263.723,25.04,263.723,21.827L263.723,21.827z M237.825,21.789V37.55h3.979v-8.837
		c1.261,1.645,3.173,2.678,5.775,2.678c5.127,0,9.143-4.017,9.143-9.602c0-5.586-4.016-9.603-9.143-9.603
		c-2.603,0-4.515,1.033-5.775,2.678v-2.219h-3.979V21.789z M252.63,21.789c0,3.213-2.105,5.853-5.548,5.853
		c-3.291,0-5.509-2.525-5.509-5.853c0-3.329,2.218-5.854,5.509-5.854C250.524,15.936,252.63,18.575,252.63,21.789L252.63,21.789z
		 M298.192,14.176c-1.913-1.263-4.554-1.913-7.46-1.913c-4.629,0-7.614,2.219-7.614,5.853c0,2.984,2.221,4.82,6.313,5.394
		l1.875,0.269c2.18,0.306,3.213,0.879,3.213,1.913c0,1.416-1.454,2.219-4.169,2.219c-2.756,0-4.744-0.88-6.083-1.912l-1.875,3.098
		c2.181,1.608,4.936,2.372,7.918,2.372c5.28,0,8.34-2.486,8.34-5.968c0-3.213-2.409-4.896-6.388-5.47l-1.875-0.268
		c-1.721-0.23-3.098-0.575-3.098-1.798c0-1.339,1.299-2.143,3.481-2.143c2.332,0,4.589,0.88,5.698,1.569L298.192,14.176z
		 M317.281,14.176c-1.912-1.263-4.552-1.913-7.46-1.913c-4.629,0-7.612,2.219-7.612,5.853c0,2.984,2.219,4.82,6.312,5.394
		l1.874,0.269c2.182,0.306,3.215,0.879,3.215,1.913c0,1.416-1.454,2.219-4.17,2.219c-2.754,0-4.743-0.88-6.082-1.912l-1.876,3.098
		c2.181,1.608,4.937,2.372,7.92,2.372c5.279,0,8.34-2.486,8.34-5.968c0-3.213-2.41-4.896-6.39-5.47l-1.874-0.268
		c-1.721-0.23-3.099-0.575-3.099-1.798c0-1.339,1.301-2.143,3.48-2.143c2.335,0,4.592,0.88,5.7,1.569L317.281,14.176z M146.477,48.9
		v-5.378c0-2.027-1.291-3.39-3.371-3.407c-1.093-0.018-2.223,0.321-3.012,1.524c-0.591-0.951-1.524-1.524-2.833-1.524
		c-0.914,0-1.81,0.269-2.509,1.272V40.33h-1.865v8.57h1.883v-4.752c0-1.487,0.824-2.276,2.096-2.276
		c1.237,0,1.865,0.807,1.865,2.258V48.9h1.883v-4.752c0-1.487,0.86-2.276,2.098-2.276c1.272,0,1.882,0.807,1.882,2.258V48.9H146.477
		z M174.337,40.33h-3.049v-2.6h-1.882v2.6h-1.738v1.703h1.738v3.909c0,1.99,0.771,3.173,2.977,3.173
		c0.807,0,1.739-0.251,2.331-0.663l-0.537-1.595c-0.557,0.322-1.167,0.483-1.651,0.483c-0.932,0-1.237-0.575-1.237-1.435v-3.873
		h3.049V40.33z M190.239,40.115c-1.075,0-1.775,0.502-2.26,1.255v-1.04h-1.846v8.57h1.863v-4.806c0-1.416,0.61-2.205,1.83-2.205
		c0.376,0,0.771,0.054,1.165,0.216l0.574-1.757C191.153,40.187,190.615,40.115,190.239,40.115L190.239,40.115z M166.198,41.011
		c-0.896-0.591-2.133-0.896-3.497-0.896c-2.168,0-3.567,1.04-3.567,2.743c0,1.398,1.041,2.259,2.958,2.528l0.878,0.126
		c1.021,0.143,1.506,0.411,1.506,0.896c0,0.664-0.681,1.04-1.954,1.04c-1.291,0-2.223-0.413-2.851-0.897l-0.878,1.452
		c1.022,0.754,2.313,1.112,3.711,1.112c2.475,0,3.908-1.166,3.908-2.796c0-1.507-1.13-2.297-2.993-2.565l-0.88-0.124
		c-0.806-0.107-1.452-0.27-1.452-0.844c0-0.627,0.61-1.004,1.631-1.004c1.095,0,2.151,0.412,2.671,0.734L166.198,41.011z
		 M216.145,40.115c-1.075,0-1.775,0.502-2.259,1.255v-1.04h-1.847v8.57h1.863v-4.806c0-1.416,0.611-2.205,1.83-2.205
		c0.376,0,0.771,0.054,1.165,0.216l0.574-1.757C217.059,40.187,216.521,40.115,216.145,40.115L216.145,40.115z M192.121,44.614
		c0,2.601,1.811,4.501,4.571,4.501c1.291,0,2.151-0.286,3.085-1.021l-0.897-1.506c-0.699,0.501-1.435,0.77-2.241,0.77
		c-1.488-0.017-2.582-1.092-2.582-2.743c0-1.648,1.094-2.725,2.582-2.742c0.807,0,1.542,0.269,2.241,0.771l0.897-1.507
		c-0.934-0.734-1.794-1.021-3.085-1.021C193.932,40.115,192.121,42.016,192.121,44.614L192.121,44.614z M209.582,44.614V40.33
		h-1.864v1.04c-0.592-0.771-1.487-1.255-2.706-1.255c-2.402,0-4.285,1.883-4.285,4.499c0,2.619,1.883,4.501,4.285,4.501
		c1.219,0,2.114-0.484,2.706-1.255v1.04h1.864V44.614z M202.646,44.614c0-1.506,0.985-2.742,2.6-2.742c1.54,0,2.58,1.183,2.58,2.742
		c0,1.561-1.04,2.743-2.58,2.743C203.631,47.357,202.646,46.121,202.646,44.614L202.646,44.614z M180.145,40.115
		c-2.509,0-4.266,1.828-4.266,4.499c0,2.727,1.829,4.501,4.392,4.501c1.291,0,2.475-0.322,3.516-1.201l-0.915-1.38
		c-0.718,0.573-1.633,0.896-2.492,0.896c-1.201,0-2.295-0.557-2.563-2.098h6.363c0.019-0.233,0.036-0.465,0.036-0.718
		C184.197,41.943,182.548,40.115,180.145,40.115L180.145,40.115z M180.109,41.782c1.201,0,1.972,0.753,2.17,2.079h-4.446
		C178.03,42.625,178.783,41.782,180.109,41.782L180.109,41.782z M226.883,44.614v-7.727h-1.864v4.482
		c-0.592-0.771-1.488-1.255-2.707-1.255c-2.402,0-4.284,1.883-4.284,4.499c0,2.619,1.882,4.501,4.284,4.501
		c1.219,0,2.115-0.484,2.707-1.255v1.04h1.864V44.614z M219.945,44.614c0-1.506,0.985-2.742,2.6-2.742
		c1.541,0,2.581,1.183,2.581,2.742c0,1.561-1.04,2.743-2.581,2.743C220.931,47.357,219.945,46.121,219.945,44.614L219.945,44.614z
		 M156.983,44.614V40.33h-1.864v1.04c-0.592-0.771-1.489-1.255-2.707-1.255c-2.403,0-4.285,1.883-4.285,4.499
		c0,2.619,1.882,4.501,4.285,4.501c1.218,0,2.115-0.484,2.707-1.255v1.04h1.864V44.614z M150.045,44.614
		c0-1.506,0.986-2.742,2.599-2.742c1.542,0,2.582,1.183,2.582,2.742c0,1.561-1.04,2.743-2.582,2.743
		C151.031,47.357,150.045,46.121,150.045,44.614z M114.019,40.113c0.595,0,1.154,0.112,1.676,0.337
		c0.521,0.222,0.975,0.535,1.362,0.933c0.387,0.398,0.691,0.875,0.912,1.427c0.221,0.551,0.332,1.152,0.332,1.808
		c0,0.657-0.111,1.259-0.332,1.812c-0.221,0.55-0.524,1.025-0.912,1.425c-0.387,0.401-0.842,0.712-1.362,0.935
		c-0.522,0.223-1.081,0.335-1.676,0.335c-0.614,0-1.139-0.113-1.577-0.34c-0.438-0.226-0.806-0.527-1.104-0.902v1.02h-1.867V36.888
		h1.867v4.468c0.298-0.375,0.666-0.674,1.104-0.901C112.88,40.228,113.405,40.113,114.019,40.113z M113.796,41.874
		c-0.388,0-0.739,0.071-1.054,0.21c-0.316,0.14-0.587,0.333-0.814,0.577c-0.226,0.242-0.402,0.534-0.527,0.867
		c-0.126,0.333-0.188,0.698-0.188,1.089c0,0.395,0.062,0.757,0.188,1.093c0.125,0.332,0.301,0.622,0.527,0.866
		c0.228,0.244,0.498,0.438,0.814,0.575c0.315,0.14,0.667,0.209,1.054,0.209c0.398,0,0.759-0.071,1.081-0.217
		c0.322-0.146,0.594-0.343,0.814-0.591c0.22-0.247,0.389-0.536,0.509-0.871c0.119-0.333,0.178-0.688,0.178-1.064
		c0-0.375-0.059-0.729-0.178-1.062c-0.12-0.333-0.289-0.623-0.509-0.871c-0.221-0.246-0.492-0.443-0.814-0.591
		C114.555,41.947,114.194,41.874,113.796,41.874z M121.626,51.704h-2.073l2.625-4.565l-3.797-6.801h2.1l2.753,4.915l2.655-4.915
		h2.055L121.626,51.704z"/>
	<g>
		<circle fill="#F79E1B" cx="63.485" cy="29" r="27.5"/>
		<circle fill="#EB001B" cx="29.5" cy="29" r="27.5"/>
		<g>
			<path fill="#FF5F00" d="M57,29c0-8.771-4.112-16.578-10.508-21.613C40.097,12.422,35.985,20.229,35.985,29
				s4.112,16.578,10.507,21.613C52.888,45.578,57,37.771,57,29z"/>
		</g>
	</g>
	<g>
		<path d="M232.048,48.086c-0.052-0.117-0.122-0.22-0.21-0.308c-0.088-0.086-0.191-0.155-0.311-0.205
			c-0.119-0.052-0.245-0.074-0.38-0.074c-0.138,0-0.267,0.022-0.388,0.074c-0.119,0.05-0.224,0.119-0.312,0.205
			c-0.087,0.088-0.156,0.19-0.209,0.308c-0.051,0.115-0.075,0.24-0.075,0.372c0,0.131,0.024,0.256,0.075,0.371
			c0.053,0.117,0.122,0.219,0.209,0.305c0.088,0.089,0.192,0.156,0.312,0.207c0.121,0.052,0.25,0.078,0.388,0.078
			c0.135,0,0.261-0.026,0.38-0.078c0.119-0.051,0.223-0.118,0.311-0.207c0.088-0.086,0.158-0.188,0.21-0.305
			c0.052-0.115,0.076-0.24,0.076-0.371C232.124,48.326,232.1,48.201,232.048,48.086z M231.832,48.749
			c-0.04,0.093-0.092,0.17-0.16,0.239c-0.067,0.067-0.145,0.12-0.234,0.16c-0.089,0.038-0.187,0.058-0.29,0.058
			c-0.104,0-0.203-0.02-0.296-0.058c-0.092-0.04-0.17-0.093-0.237-0.16c-0.069-0.069-0.122-0.146-0.16-0.239
			c-0.037-0.09-0.058-0.188-0.058-0.291s0.021-0.201,0.058-0.292c0.038-0.09,0.091-0.17,0.16-0.236
			c0.067-0.067,0.146-0.121,0.237-0.159c0.093-0.04,0.191-0.058,0.296-0.058c0.104,0,0.201,0.018,0.29,0.058
			c0.09,0.038,0.167,0.092,0.234,0.159c0.068,0.066,0.12,0.146,0.16,0.236c0.037,0.091,0.057,0.189,0.057,0.292
			S231.869,48.659,231.832,48.749z"/>
		<path d="M231.488,48.475c0.049-0.048,0.074-0.108,0.074-0.182c0-0.089-0.032-0.156-0.093-0.207
			c-0.064-0.052-0.151-0.078-0.266-0.078h-0.411V48.9h0.189v-0.334h0.088l0.27,0.334h0.229l-0.291-0.336
			C231.367,48.553,231.438,48.523,231.488,48.475z M230.982,48.414v-0.238h0.219c0.051,0,0.091,0.009,0.121,0.028
			c0.029,0.021,0.044,0.051,0.044,0.089c0,0.04-0.015,0.071-0.044,0.09c-0.03,0.021-0.07,0.031-0.121,0.031H230.982z"/>
	</g>
	<g id="XMLID_305_">
		<polygon id="XMLID_307_" points="319.752,30.961 319.752,30.074 319.396,30.074 319.396,29.895 320.305,29.895 320.305,30.074 
			319.948,30.074 319.948,30.961 		"/>
		<polygon id="XMLID_306_" points="321.515,30.961 321.515,30.154 321.216,30.85 321.011,30.85 320.71,30.154 320.71,30.961 
			320.514,30.961 320.514,29.892 320.793,29.892 321.113,30.627 321.434,29.892 321.712,29.892 321.712,30.961 		"/>
	</g>
	<path fill="#F79E1B" d="M88.361,46.041v-0.887h0.357v-0.179H87.81v0.179h0.356v0.887H88.361z M90.126,46.041v-1.067h-0.278
		l-0.32,0.733l-0.321-0.733h-0.278v1.067h0.196v-0.806l0.3,0.693h0.204l0.301-0.695v0.808H90.126z"/>
</g>
</svg>
